<svg xmlns="http://www.w3.org/2000/svg" viewBox="16 16 96 96" width="128" height="128">
  <defs>
    <linearGradient id="g" x1="0" y1="0" x2="1" y2="1">
      <stop offset="0" stop-color="#FF3D5A"/>
      <stop offset=".55" stop-color="#FF6A3D"/>
      <stop offset="1" stop-color="#FFB23E"/>
    </linearGradient>
    <linearGradient id="shine" x1="0" y1="0" x2="0" y2="1">
      <stop offset="0" stop-color="#fff" stop-opacity=".22"/>
      <stop offset=".5" stop-color="#fff" stop-opacity="0"/>
    </linearGradient>
    <filter id="s" x="-20%" y="-20%" width="140%" height="140%">
      <feDropShadow dx="0" dy="2" stdDeviation="2" flood-color="#7a1a10" flood-opacity=".28"/>
    </filter>
  </defs>
  <rect x="16" y="16" width="96" height="96" rx="24" fill="url(#g)"/>
  <rect x="16" y="16" width="96" height="96" rx="24" fill="url(#shine)"/>
  <!-- viewfinder corners -->
  <g fill="none" stroke="#fff" stroke-width="5" stroke-linecap="round" stroke-linejoin="round" opacity=".95">
    <path d="M29 42 V33 a4 4 0 0 1 4 -4 H42"/>
    <path d="M86 29 H95 a4 4 0 0 1 4 4 V42"/>
    <path d="M99 86 V95 a4 4 0 0 1 -4 4 H86"/>
    <path d="M42 99 H33 a4 4 0 0 1 -4 -4 V86"/>
  </g>
  <!-- tall page -->
  <g filter="url(#s)">
    <path d="M49 38 H71 L81 48 V86 a4 4 0 0 1 -4 4 H49 a4 4 0 0 1 -4 -4 V42 a4 4 0 0 1 4 -4 Z" fill="#fff"/>
  </g>
  <path d="M71 38 V45 a3 3 0 0 0 3 3 H81 Z" fill="#FFC9B8"/>
  <!-- content bars -->
  <rect x="51" y="52" width="24" height="4.5" rx="2.25" fill="#FF5A3C"/>
  <rect x="51" y="61" width="18" height="4.5" rx="2.25" fill="#FF5A3C" opacity=".45"/>
  <rect x="51" y="70" width="22" height="4.5" rx="2.25" fill="#FF5A3C" opacity=".45"/>
  <rect x="51" y="79" width="14" height="4.5" rx="2.25" fill="#FF5A3C" opacity=".45"/>
</svg>
